<?xml version="1.0" encoding="UTF-8"?>
<svg xmlns="http://www.w3.org/2000/svg" xmlns:xlink="http://www.w3.org/1999/xlink" width="100px" height="100px" viewBox="0 0 100 100" version="1.1">
<g id="surface1">
<path style=" stroke:none;fill-rule:nonzero;fill:rgb(0%,0%,0%);fill-opacity:1;" d="M 50.320312 12.492188 L 50.875 12.492188 C 56.011719 12.511719 82.042969 12.699219 89.0625 14.585938 C 93.378906 15.761719 96.75 19.140625 97.90625 23.460938 C 98.539062 25.835938 98.980469 28.980469 99.28125 32.226562 L 99.34375 32.875 L 99.480469 34.5 L 99.53125 35.148438 C 99.9375 40.863281 99.988281 46.210938 99.992188 47.382812 L 99.992188 47.851562 C 99.988281 49.0625 99.929688 54.773438 99.480469 60.726562 L 99.429688 61.382812 L 99.375 62.03125 C 99.0625 65.605469 98.601562 69.15625 97.90625 71.769531 C 96.753906 76.09375 93.382812 79.476562 89.0625 80.644531 C 81.8125 82.59375 54.257812 82.730469 50.4375 82.738281 L 49.550781 82.738281 C 47.617188 82.738281 39.632812 82.699219 31.257812 82.414062 L 30.195312 82.375 L 29.648438 82.351562 L 28.582031 82.304688 L 27.511719 82.261719 C 20.574219 81.957031 13.96875 81.460938 10.925781 80.636719 C 6.605469 79.46875 3.238281 76.089844 2.082031 71.769531 C 1.386719 69.164062 0.925781 65.605469 0.613281 62.03125 L 0.5625 61.375 L 0.511719 60.726562 C 0.203125 56.488281 0.03125 52.246094 0 48 L 0 47.230469 C 0.0117188 45.886719 0.0625 41.242188 0.398438 36.117188 L 0.445312 35.476562 L 0.460938 35.148438 L 0.511719 34.5 L 0.648438 32.875 L 0.710938 32.226562 C 1.011719 28.980469 1.457031 25.832031 2.085938 23.460938 C 3.242188 19.136719 6.609375 15.757812 10.929688 14.585938 C 13.976562 13.773438 20.582031 13.273438 27.519531 12.960938 L 28.582031 12.917969 L 29.65625 12.882812 L 30.195312 12.863281 L 31.261719 12.820312 C 37.210938 12.628906 43.160156 12.519531 49.113281 12.5 L 50.320312 12.5 Z M 40 32.554688 L 40 62.667969 L 65.980469 47.617188 Z M 40 32.554688 "/>
</g>
</svg>
